<mxfile host="app.diagrams.net" modified="2023-11-29T14:48:56.042Z" agent="Mozilla/5.0 (Windows NT 10.0; Win64; x64) AppleWebKit/537.36 (KHTML, like Gecko) Chrome/119.0.0.0 Safari/537.36" etag="vXPWcm68aRNS149VGu0x" version="22.1.4" type="device">
  <diagram name="Página-1" id="X-Q9BxR87rykajL6PzuP">
    <mxGraphModel dx="4097" dy="3403" grid="1" gridSize="10" guides="1" tooltips="1" connect="1" arrows="1" fold="1" page="1" pageScale="1" pageWidth="827" pageHeight="1169" math="0" shadow="0">
      <root>
        <mxCell id="0" />
        <mxCell id="1" parent="0" />
        <mxCell id="jegZ_MzA-e2uqI_YPrMj-3" value="Cliente acessa a página&lt;br&gt;&amp;nbsp;para comprar o ingresso" style="edgeStyle=orthogonalEdgeStyle;rounded=0;orthogonalLoop=1;jettySize=auto;html=1;" edge="1" parent="1" source="jegZ_MzA-e2uqI_YPrMj-1" target="jegZ_MzA-e2uqI_YPrMj-2">
          <mxGeometry relative="1" as="geometry" />
        </mxCell>
        <mxCell id="jegZ_MzA-e2uqI_YPrMj-1" value="Cliente" style="sketch=0;outlineConnect=0;fontColor=#232F3E;gradientColor=none;strokeColor=#232F3E;fillColor=#ffffff;dashed=0;verticalLabelPosition=bottom;verticalAlign=top;align=center;html=1;fontSize=12;fontStyle=0;aspect=fixed;shape=mxgraph.aws4.resourceIcon;resIcon=mxgraph.aws4.client;" vertex="1" parent="1">
          <mxGeometry x="140" y="330" width="60" height="60" as="geometry" />
        </mxCell>
        <mxCell id="jegZ_MzA-e2uqI_YPrMj-2" value="Site" style="sketch=0;pointerEvents=1;shadow=0;dashed=0;html=1;strokeColor=none;fillColor=#505050;labelPosition=center;verticalLabelPosition=bottom;verticalAlign=top;outlineConnect=0;align=center;shape=mxgraph.office.concepts.web_page;" vertex="1" parent="1">
          <mxGeometry x="414" y="333" width="50" height="54" as="geometry" />
        </mxCell>
        <mxCell id="jegZ_MzA-e2uqI_YPrMj-14" value="Retorna após Login&lt;br&gt;&amp;nbsp;com sucesso" style="edgeStyle=orthogonalEdgeStyle;rounded=0;orthogonalLoop=1;jettySize=auto;html=1;" edge="1" parent="1" source="jegZ_MzA-e2uqI_YPrMj-5" target="jegZ_MzA-e2uqI_YPrMj-12">
          <mxGeometry relative="1" as="geometry" />
        </mxCell>
        <mxCell id="jegZ_MzA-e2uqI_YPrMj-5" value="Microsserviço responvável &lt;br&gt;por Sign In, Sign Up e etc/" style="image;sketch=0;aspect=fixed;html=1;points=[];align=center;fontSize=12;image=img/lib/mscae/App_Services.svg;" vertex="1" parent="1">
          <mxGeometry x="600" y="333" width="50" height="50" as="geometry" />
        </mxCell>
        <mxCell id="jegZ_MzA-e2uqI_YPrMj-9" value="Sign In" style="edgeStyle=orthogonalEdgeStyle;rounded=0;orthogonalLoop=1;jettySize=auto;html=1;entryX=0;entryY=0.54;entryDx=0;entryDy=0;entryPerimeter=0;" edge="1" parent="1" source="jegZ_MzA-e2uqI_YPrMj-2" target="jegZ_MzA-e2uqI_YPrMj-5">
          <mxGeometry relative="1" as="geometry" />
        </mxCell>
        <mxCell id="jegZ_MzA-e2uqI_YPrMj-15" value="Cliente tenta entrar na&lt;br&gt;&amp;nbsp;fila para comprar&amp;nbsp;" style="edgeStyle=orthogonalEdgeStyle;rounded=0;orthogonalLoop=1;jettySize=auto;html=1;" edge="1" parent="1" source="jegZ_MzA-e2uqI_YPrMj-12">
          <mxGeometry relative="1" as="geometry">
            <mxPoint x="1070" y="360" as="targetPoint" />
          </mxGeometry>
        </mxCell>
        <mxCell id="jegZ_MzA-e2uqI_YPrMj-12" value="Site" style="sketch=0;pointerEvents=1;shadow=0;dashed=0;html=1;strokeColor=none;fillColor=#505050;labelPosition=center;verticalLabelPosition=bottom;verticalAlign=top;outlineConnect=0;align=center;shape=mxgraph.office.concepts.web_page;" vertex="1" parent="1">
          <mxGeometry x="840" y="331" width="50" height="54" as="geometry" />
        </mxCell>
        <mxCell id="jegZ_MzA-e2uqI_YPrMj-23" style="edgeStyle=orthogonalEdgeStyle;rounded=0;orthogonalLoop=1;jettySize=auto;html=1;entryX=0;entryY=0.5;entryDx=0;entryDy=0;" edge="1" parent="1" source="jegZ_MzA-e2uqI_YPrMj-17" target="jegZ_MzA-e2uqI_YPrMj-22">
          <mxGeometry relative="1" as="geometry" />
        </mxCell>
        <mxCell id="jegZ_MzA-e2uqI_YPrMj-17" value="Microsserviço responvável &lt;br&gt;por venda de ingressos" style="image;sketch=0;aspect=fixed;html=1;points=[];align=center;fontSize=12;image=img/lib/mscae/App_Services.svg;" vertex="1" parent="1">
          <mxGeometry x="1080" y="335" width="50" height="50" as="geometry" />
        </mxCell>
        <mxCell id="jegZ_MzA-e2uqI_YPrMj-21" value="Adiciona o cliente em uma fila e ele deverá aguardar até sua vez chegar.&amp;nbsp;" style="rounded=1;whiteSpace=wrap;html=1;" vertex="1" parent="1">
          <mxGeometry x="1510" y="240" width="240" height="60" as="geometry" />
        </mxCell>
        <mxCell id="jegZ_MzA-e2uqI_YPrMj-24" value="Sim" style="edgeStyle=orthogonalEdgeStyle;rounded=0;orthogonalLoop=1;jettySize=auto;html=1;entryX=0;entryY=0.5;entryDx=0;entryDy=0;" edge="1" parent="1" source="jegZ_MzA-e2uqI_YPrMj-22" target="jegZ_MzA-e2uqI_YPrMj-21">
          <mxGeometry relative="1" as="geometry" />
        </mxCell>
        <mxCell id="jegZ_MzA-e2uqI_YPrMj-29" value="Não" style="edgeStyle=orthogonalEdgeStyle;rounded=0;orthogonalLoop=1;jettySize=auto;html=1;entryX=0;entryY=0.5;entryDx=0;entryDy=0;" edge="1" parent="1" source="jegZ_MzA-e2uqI_YPrMj-22" target="jegZ_MzA-e2uqI_YPrMj-28">
          <mxGeometry relative="1" as="geometry" />
        </mxCell>
        <mxCell id="jegZ_MzA-e2uqI_YPrMj-22" value="Existem ingressos&lt;br&gt;&amp;nbsp;disponível?" style="rhombus;whiteSpace=wrap;html=1;" vertex="1" parent="1">
          <mxGeometry x="1230" y="315" width="170" height="90" as="geometry" />
        </mxCell>
        <mxCell id="jegZ_MzA-e2uqI_YPrMj-31" style="edgeStyle=orthogonalEdgeStyle;rounded=0;orthogonalLoop=1;jettySize=auto;html=1;" edge="1" parent="1" source="jegZ_MzA-e2uqI_YPrMj-28" target="jegZ_MzA-e2uqI_YPrMj-30">
          <mxGeometry relative="1" as="geometry" />
        </mxCell>
        <mxCell id="jegZ_MzA-e2uqI_YPrMj-28" value="Retorna para o site que não há mais ingressos disponíveis" style="rounded=1;whiteSpace=wrap;html=1;" vertex="1" parent="1">
          <mxGeometry x="1510" y="390" width="240" height="60" as="geometry" />
        </mxCell>
        <mxCell id="jegZ_MzA-e2uqI_YPrMj-30" value="Site" style="sketch=0;pointerEvents=1;shadow=0;dashed=0;html=1;strokeColor=none;fillColor=#505050;labelPosition=center;verticalLabelPosition=bottom;verticalAlign=top;outlineConnect=0;align=center;shape=mxgraph.office.concepts.web_page;" vertex="1" parent="1">
          <mxGeometry x="1820" y="393" width="50" height="54" as="geometry" />
        </mxCell>
        <mxCell id="jegZ_MzA-e2uqI_YPrMj-40" style="edgeStyle=orthogonalEdgeStyle;rounded=0;orthogonalLoop=1;jettySize=auto;html=1;entryX=0.5;entryY=1;entryDx=0;entryDy=0;endArrow=none;endFill=0;dashed=1;" edge="1" parent="1" source="jegZ_MzA-e2uqI_YPrMj-33" target="jegZ_MzA-e2uqI_YPrMj-39">
          <mxGeometry relative="1" as="geometry" />
        </mxCell>
        <mxCell id="jegZ_MzA-e2uqI_YPrMj-42" style="edgeStyle=orthogonalEdgeStyle;rounded=0;orthogonalLoop=1;jettySize=auto;html=1;entryX=0;entryY=0.5;entryDx=0;entryDy=0;" edge="1" parent="1" source="jegZ_MzA-e2uqI_YPrMj-33" target="jegZ_MzA-e2uqI_YPrMj-41">
          <mxGeometry relative="1" as="geometry" />
        </mxCell>
        <mxCell id="jegZ_MzA-e2uqI_YPrMj-33" value="Serviço de Fila" style="image;aspect=fixed;html=1;points=[];align=center;fontSize=12;image=img/lib/azure2/general/Service_Bus.svg;" vertex="1" parent="1">
          <mxGeometry x="1840" y="240" width="70" height="60" as="geometry" />
        </mxCell>
        <mxCell id="jegZ_MzA-e2uqI_YPrMj-34" style="edgeStyle=orthogonalEdgeStyle;rounded=0;orthogonalLoop=1;jettySize=auto;html=1;entryX=-0.018;entryY=0.498;entryDx=0;entryDy=0;entryPerimeter=0;" edge="1" parent="1" source="jegZ_MzA-e2uqI_YPrMj-21" target="jegZ_MzA-e2uqI_YPrMj-33">
          <mxGeometry relative="1" as="geometry" />
        </mxCell>
        <mxCell id="jegZ_MzA-e2uqI_YPrMj-37" style="edgeStyle=orthogonalEdgeStyle;rounded=0;orthogonalLoop=1;jettySize=auto;html=1;endArrow=none;endFill=0;dashed=1;" edge="1" parent="1" source="jegZ_MzA-e2uqI_YPrMj-36">
          <mxGeometry relative="1" as="geometry">
            <mxPoint x="980" y="370" as="targetPoint" />
          </mxGeometry>
        </mxCell>
        <mxCell id="jegZ_MzA-e2uqI_YPrMj-36" value="Deve haver um limite de ingressos que o cliente pode comprar." style="rounded=1;whiteSpace=wrap;html=1;" vertex="1" parent="1">
          <mxGeometry x="850" y="470" width="240" height="60" as="geometry" />
        </mxCell>
        <mxCell id="jegZ_MzA-e2uqI_YPrMj-39" value="OBS 1: O serviço de fila pode ser implementado usando&lt;br style=&quot;border-color: var(--border-color);&quot;&gt;&lt;span style=&quot;border-color: var(--border-color); background-color: rgb(255, 255, 255);&quot;&gt;&amp;nbsp;um seviço de mensageria. Ex: RabbitMQ, Azure Service Bus,&lt;/span&gt;&lt;br style=&quot;border-color: var(--border-color);&quot;&gt;&lt;span style=&quot;border-color: var(--border-color); background-color: rgb(255, 255, 255);&quot;&gt;Google PubSub e etc.&lt;br&gt;&lt;br&gt;OBS 2: Para garantir que os clientes com internet mais lenta tenham chance justa de comprar os ingressos, o sistema pode usar um algoritmo de fila que prioriza os clientes que estão esperando há mais tempo tempo&lt;span style=&quot;border-color: var(--border-color);&quot;&gt;.&lt;/span&gt;&lt;br&gt;&lt;br&gt;&lt;/span&gt;" style="rounded=1;whiteSpace=wrap;html=1;align=left;spacingTop=0;spacing=14;" vertex="1" parent="1">
          <mxGeometry x="1657.5" y="-10" width="435" height="150" as="geometry" />
        </mxCell>
        <mxCell id="jegZ_MzA-e2uqI_YPrMj-45" value="Não há ingressos disponíveis" style="edgeStyle=orthogonalEdgeStyle;rounded=0;orthogonalLoop=1;jettySize=auto;html=1;curved=1;" edge="1" parent="1" source="jegZ_MzA-e2uqI_YPrMj-41" target="jegZ_MzA-e2uqI_YPrMj-28">
          <mxGeometry relative="1" as="geometry">
            <Array as="points">
              <mxPoint x="2160" y="340" />
              <mxPoint x="1630" y="340" />
            </Array>
          </mxGeometry>
        </mxCell>
        <mxCell id="jegZ_MzA-e2uqI_YPrMj-46" value="Há ingressos dispóníveis" style="edgeStyle=orthogonalEdgeStyle;rounded=0;orthogonalLoop=1;jettySize=auto;html=1;entryX=-0.127;entryY=0.523;entryDx=0;entryDy=0;entryPerimeter=0;" edge="1" parent="1" source="jegZ_MzA-e2uqI_YPrMj-41" target="jegZ_MzA-e2uqI_YPrMj-47">
          <mxGeometry relative="1" as="geometry">
            <mxPoint x="2540" y="270" as="targetPoint" />
          </mxGeometry>
        </mxCell>
        <mxCell id="jegZ_MzA-e2uqI_YPrMj-41" value="Quando chegar a vez do cliente, o sistema verifica novamente se tem ingresso disponível." style="rounded=1;whiteSpace=wrap;html=1;" vertex="1" parent="1">
          <mxGeometry x="2000" y="240" width="320" height="60" as="geometry" />
        </mxCell>
        <mxCell id="jegZ_MzA-e2uqI_YPrMj-54" style="edgeStyle=orthogonalEdgeStyle;rounded=0;orthogonalLoop=1;jettySize=auto;html=1;entryX=0;entryY=0.5;entryDx=0;entryDy=0;" edge="1" parent="1" source="jegZ_MzA-e2uqI_YPrMj-47" target="jegZ_MzA-e2uqI_YPrMj-53">
          <mxGeometry relative="1" as="geometry" />
        </mxCell>
        <mxCell id="jegZ_MzA-e2uqI_YPrMj-47" value="Microsserviço responvável &lt;br&gt;por venda de ingressos" style="image;sketch=0;aspect=fixed;html=1;points=[];align=center;fontSize=12;image=img/lib/mscae/App_Services.svg;" vertex="1" parent="1">
          <mxGeometry x="2590" y="245" width="50" height="50" as="geometry" />
        </mxCell>
        <mxCell id="jegZ_MzA-e2uqI_YPrMj-56" style="edgeStyle=orthogonalEdgeStyle;rounded=0;orthogonalLoop=1;jettySize=auto;html=1;" edge="1" parent="1" source="jegZ_MzA-e2uqI_YPrMj-53" target="jegZ_MzA-e2uqI_YPrMj-55">
          <mxGeometry relative="1" as="geometry" />
        </mxCell>
        <mxCell id="jegZ_MzA-e2uqI_YPrMj-53" value="Realiza a venda do ingresso." style="rounded=1;whiteSpace=wrap;html=1;" vertex="1" parent="1">
          <mxGeometry x="2740" y="240" width="210" height="60" as="geometry" />
        </mxCell>
        <mxCell id="jegZ_MzA-e2uqI_YPrMj-55" value="Site" style="sketch=0;pointerEvents=1;shadow=0;dashed=0;html=1;strokeColor=none;fillColor=#505050;labelPosition=center;verticalLabelPosition=bottom;verticalAlign=top;outlineConnect=0;align=center;shape=mxgraph.office.concepts.web_page;" vertex="1" parent="1">
          <mxGeometry x="3070" y="243" width="50" height="54" as="geometry" />
        </mxCell>
      </root>
    </mxGraphModel>
  </diagram>
</mxfile>
